<svg xmlns="http://www.w3.org/2000/svg"  viewBox="0 0 32 32" width="32px" height="32px" baseProfile="basic"><circle cx="16" cy="16" r="14" fill="#449bb3"/><path fill="#fff" d="M19.213,23.49c-0.229,0-0.458-0.054-0.671-0.16l-4.949-2.475c-0.391-0.195-0.676-0.551-0.783-0.975	s-0.024-0.871,0.227-1.229l0.78-1.111l-2.289,1.464c-0.443,0.282-1.009,0.313-1.48,0.078l-2.293-1.147	c-0.534-0.267-0.851-0.803-0.828-1.399c0.023-0.597,0.381-1.107,0.935-1.331l12.33-5.009c0.504-0.208,1.063-0.127,1.491,0.21	c0.429,0.338,0.637,0.86,0.557,1.399l-1.541,10.402c-0.071,0.481-0.36,0.887-0.792,1.111C19.686,23.434,19.45,23.49,19.213,23.49z M17.544,13.969l-3.689,5.258c-0.085,0.121-0.112,0.267-0.076,0.409c0.037,0.144,0.129,0.259,0.261,0.325l4.949,2.475	c0.145,0.073,0.311,0.069,0.455-0.004c0.144-0.074,0.24-0.21,0.264-0.37l1.541-10.402c0.039-0.259-0.117-0.412-0.186-0.467	c-0.068-0.053-0.254-0.168-0.497-0.07l-12.33,5.009c-0.277,0.113-0.308,0.368-0.311,0.444c-0.003,0.075,0.008,0.332,0.275,0.466	l2.296,1.147c0.154,0.078,0.343,0.067,0.492-0.025L17.544,13.969z"/><path fill="#302529" d="M16,31C7.729,31,1,24.271,1,16S7.729,1,16,1s15,6.729,15,15S24.271,31,16,31z M16,3	C8.832,3,3,8.832,3,16s5.832,13,13,13s13-5.832,13-13S23.168,3,16,3z"/></svg>